<svg width="45" height="36" viewBox="0 0 45 36" fill="none" xmlns="http://www.w3.org/2000/svg">
<path d="M4.5 0L9 9H15.75L11.25 0H15.75L20.25 9H27L22.5 0H27L31.5 9H38.25L33.75 0H40.5C41.7375 0 42.7969 0.440625 43.6781 1.32187C44.5594 2.20312 45 3.2625 45 4.5V31.5C45 32.7375 44.5594 33.7969 43.6781 34.6781C42.7969 35.5594 41.7375 36 40.5 36H4.5C3.2625 36 2.20312 35.5594 1.32187 34.6781C0.440625 33.7969 0 32.7375 0 31.5V4.5C0 3.2625 0.440625 2.20312 1.32187 1.32187C2.20312 0.440625 3.2625 0 4.5 0Z" fill="#FEC00A"/>
</svg>
